<svg xmlns="http://www.w3.org/2000/svg" viewBox="0 0 64 64">
  <rect width="64" height="64" rx="14" fill="#211d18"/>
  <rect x="4" y="4" width="56" height="56" rx="11" fill="#f0a53f"/>
  <!-- гаечный ключ -->
  <path d="M40 17a9 9 0 0 0-11 11L15 42a4 4 0 0 0 6 6l14-14a9 9 0 0 0 11-11l-6 6-5-1-1-5 6-6z"
        fill="#241605" stroke="#241605" stroke-width="1.5" stroke-linejoin="round"/>
  <!-- отвёртка -->
  <path d="M44 40l4 4M40 44l7 7a3 3 0 0 0 4-4l-7-7" fill="none" stroke="#241605" stroke-width="4" stroke-linecap="round" stroke-linejoin="round"/>
</svg>
